<?xml version="1.0" standalone="no"?><!DOCTYPE svg PUBLIC "-//W3C//DTD SVG 1.1//EN" "http://www.w3.org/Graphics/SVG/1.1/DTD/svg11.dtd"><svg t="1636960703685" class="icon" viewBox="0 0 1024 1024" version="1.1" xmlns="http://www.w3.org/2000/svg" p-id="1761" xmlns:xlink="http://www.w3.org/1999/xlink" width="200" height="200"><defs><style type="text/css"></style></defs><path d="M945.230769 433.230769h78.769231v78.769231h-78.769231zM866.461538 512h78.769231v78.769231h-78.769231zM787.692308 590.769231h78.76923v78.769231h-78.76923zM708.923077 669.538462h78.769231v78.76923h-78.769231zM630.153846 748.307692h78.769231v78.769231h-78.769231zM551.384615 827.076923h78.769231v78.769231h-78.769231zM472.615385 905.846154h78.76923v78.769231h-78.76923zM393.846154 827.076923h78.769231v78.769231h-78.769231zM315.076923 748.307692h78.769231v78.769231h-78.769231zM236.307692 669.538462h78.769231v78.76923h-78.769231zM157.538462 590.769231h78.76923v78.769231H157.538462zM78.769231 512h78.769231v78.769231H78.769231zM0 433.230769h78.769231v78.769231H0zM945.230769 354.461538h78.769231v78.769231h-78.769231zM945.230769 275.692308h78.769231v78.76923h-78.769231zM945.230769 196.923077h78.769231v78.769231h-78.769231z" fill="#1E2028" p-id="1762"></path><path d="M866.461538 433.230769h78.769231v78.769231h-78.769231zM866.461538 354.461538h78.769231v78.769231h-78.769231zM866.461538 275.692308h78.769231v78.76923h-78.769231zM866.461538 196.923077h78.769231v78.769231h-78.769231z" fill="#AF1441" p-id="1763"></path><path d="M866.461538 118.153846h78.769231v78.769231h-78.769231z" fill="#1E2028" p-id="1764"></path><path d="M787.692308 512h78.76923v78.769231h-78.76923z" fill="#AF1441" p-id="1765"></path><path d="M787.692308 433.230769h78.76923v78.769231h-78.76923zM787.692308 354.461538h78.76923v78.769231h-78.76923zM787.692308 275.692308h78.76923v78.76923h-78.76923zM787.692308 196.923077h78.76923v78.769231h-78.76923z" fill="#FF1A51" p-id="1766"></path><path d="M787.692308 118.153846h78.76923v78.769231h-78.76923z" fill="#AF1441" p-id="1767"></path><path d="M787.692308 39.384615h78.76923v78.769231h-78.76923z" fill="#1E2028" p-id="1768"></path><path d="M708.923077 590.769231h78.769231v78.769231h-78.769231z" fill="#AF1441" p-id="1769"></path><path d="M708.923077 512h78.769231v78.769231h-78.769231zM708.923077 433.230769h78.769231v78.769231h-78.769231zM708.923077 354.461538h78.769231v78.769231h-78.769231zM708.923077 275.692308h78.769231v78.76923h-78.769231zM708.923077 196.923077h78.769231v78.769231h-78.769231zM708.923077 118.153846h78.769231v78.769231h-78.769231z" fill="#FF1A51" p-id="1770"></path><path d="M708.923077 39.384615h78.769231v78.769231h-78.769231z" fill="#1E2028" p-id="1771"></path><path d="M630.153846 669.538462h78.769231v78.76923h-78.769231z" fill="#AF1441" p-id="1772"></path><path d="M630.153846 590.769231h78.769231v78.769231h-78.769231zM630.153846 512h78.769231v78.769231h-78.769231zM630.153846 433.230769h78.769231v78.769231h-78.769231zM630.153846 354.461538h78.769231v78.769231h-78.769231zM630.153846 275.692308h78.769231v78.76923h-78.769231zM630.153846 196.923077h78.769231v78.769231h-78.769231zM630.153846 118.153846h78.769231v78.769231h-78.769231z" fill="#FF1A51" p-id="1773"></path><path d="M630.153846 39.384615h78.769231v78.769231h-78.769231z" fill="#1E2028" p-id="1774"></path><path d="M551.384615 748.307692h78.769231v78.769231h-78.769231z" fill="#AF1441" p-id="1775"></path><path d="M551.384615 669.538462h78.769231v78.76923h-78.769231zM551.384615 590.769231h78.769231v78.769231h-78.769231zM551.384615 512h78.769231v78.769231h-78.769231zM551.384615 433.230769h78.769231v78.769231h-78.769231zM551.384615 354.461538h78.769231v78.769231h-78.769231zM551.384615 275.692308h78.769231v78.76923h-78.769231zM551.384615 196.923077h78.769231v78.769231h-78.769231z" fill="#FF1A51" p-id="1776"></path><path d="M551.384615 118.153846h78.769231v78.769231h-78.769231z" fill="#1E2028" p-id="1777"></path><path d="M472.615385 827.076923h78.76923v78.769231h-78.76923z" fill="#F4608A" p-id="1778"></path><path d="M472.615385 748.307692h78.76923v78.769231h-78.76923zM472.615385 669.538462h78.76923v78.76923h-78.76923zM472.615385 590.769231h78.76923v78.769231h-78.76923zM472.615385 512h78.76923v78.769231h-78.76923zM472.615385 433.230769h78.76923v78.769231h-78.76923zM472.615385 354.461538h78.76923v78.769231h-78.76923zM472.615385 275.692308h78.76923v78.76923h-78.76923z" fill="#FF1A51" p-id="1779"></path><path d="M472.615385 196.923077h78.76923v78.769231h-78.76923z" fill="#1E2028" p-id="1780"></path><path d="M393.846154 748.307692h78.769231v78.769231h-78.769231z" fill="#F4608A" p-id="1781"></path><path d="M393.846154 669.538462h78.769231v78.76923h-78.769231zM393.846154 590.769231h78.769231v78.769231h-78.769231zM393.846154 512h78.769231v78.769231h-78.769231zM393.846154 433.230769h78.769231v78.769231h-78.769231zM393.846154 354.461538h78.769231v78.769231h-78.769231zM393.846154 275.692308h78.769231v78.76923h-78.769231zM393.846154 196.923077h78.769231v78.769231h-78.769231z" fill="#FF1A51" p-id="1782"></path><path d="M393.846154 118.153846h78.769231v78.769231h-78.769231z" fill="#1E2028" p-id="1783"></path><path d="M315.076923 669.538462h78.769231v78.76923h-78.769231z" fill="#F4608A" p-id="1784"></path><path d="M315.076923 590.769231h78.769231v78.769231h-78.769231zM315.076923 512h78.769231v78.769231h-78.769231zM315.076923 433.230769h78.769231v78.769231h-78.769231zM315.076923 354.461538h78.769231v78.769231h-78.769231zM315.076923 275.692308h78.769231v78.76923h-78.769231zM315.076923 196.923077h78.769231v78.769231h-78.769231zM315.076923 118.153846h78.769231v78.769231h-78.769231z" fill="#FF1A51" p-id="1785"></path><path d="M315.076923 39.384615h78.769231v78.769231h-78.769231z" fill="#1E2028" p-id="1786"></path><path d="M236.307692 590.769231h78.769231v78.769231h-78.769231z" fill="#F4608A" p-id="1787"></path><path d="M236.307692 512h78.769231v78.769231h-78.769231zM236.307692 433.230769h78.769231v78.769231h-78.769231zM236.307692 354.461538h78.769231v78.769231h-78.769231zM236.307692 275.692308h78.769231v78.76923h-78.769231z" fill="#FF1A51" p-id="1788"></path><path d="M236.307692 196.923077h78.769231v78.769231h-78.769231z" fill="#FFFFFF" p-id="1789"></path><path d="M236.307692 118.153846h78.769231v78.769231h-78.769231z" fill="#FF1A51" p-id="1790"></path><path d="M236.307692 39.384615h78.769231v78.769231h-78.769231z" fill="#1E2028" p-id="1791"></path><path d="M157.538462 512h78.76923v78.769231H157.538462z" fill="#F4608A" p-id="1792"></path><path d="M157.538462 433.230769h78.76923v78.769231H157.538462zM157.538462 354.461538h78.76923v78.769231H157.538462z" fill="#FF1A51" p-id="1793"></path><path d="M157.538462 275.692308h78.76923v78.76923H157.538462zM157.538462 196.923077h78.76923v78.769231H157.538462z" fill="#FFFFFF" p-id="1794"></path><path d="M157.538462 118.153846h78.76923v78.769231H157.538462z" fill="#F4608A" p-id="1795"></path><path d="M157.538462 39.384615h78.76923v78.769231H157.538462z" fill="#1E2028" p-id="1796"></path><path d="M78.769231 433.230769h78.769231v78.769231H78.769231zM78.769231 354.461538h78.769231v78.769231H78.769231zM78.769231 275.692308h78.769231v78.76923H78.769231zM78.769231 196.923077h78.769231v78.769231H78.769231z" fill="#F4608A" p-id="1797"></path><path d="M78.769231 118.153846h78.769231v78.769231H78.769231zM0 354.461538h78.769231v78.769231H0zM0 275.692308h78.769231v78.76923H0zM0 196.923077h78.769231v78.769231H0z" fill="#1E2028" p-id="1798"></path></svg>